<svg xmlns="http://www.w3.org/2000/svg" viewBox="0 0 80 80" width="16" height="16"><path fill="#c2e8ff" d="M24.533 26L0 26 0 34 22.933 34zM21.133 44L22.2 38 0 38 0 44zM20 52L20.533 48 0 48 0 52z"/><path fill="#fff" d="M14.605 65.5L24.413 14.5 79.39 14.5 69.19 65.5z"/><path fill="#788b9c" d="M78.78,15l-10,50h-53.57l9.615-50H78.78 M80,14H24L14,66h55.6L80,14L80,14z"/><path fill="#8bb7f0" d="M26.511 49.5L30.408 30.5 67.39 30.5 63.59 49.5z"/><path fill="#4e7ab5" d="M66.78,31l-3.6,18H27.124l3.691-18H66.78 M68,30H30l-4.102,20H64L68,30L68,30z"/><path fill="#788b9c" d="M79 14L25 14 23 24 77 24z"/><path fill="#fff" d="M31.673 42L61.4 42 62.6 36 32.873 36z"/><path fill="#37474f" d="M38.433 42L39.633 36 38.594 36 37.394 42z"/></svg>